<svg width="154" height="48" viewBox="0 0 154 48" fill="none" xmlns="http://www.w3.org/2000/svg">
<path d="M35.0795 16.2727V9.90909H60.3636V16.2727H51.6136V39H43.8295V16.2727H35.0795ZM90.1506 24.4545C90.1506 27.6932 89.5208 30.4252 88.2614 32.6506C87.0019 34.8665 85.3021 36.5473 83.1619 37.6932C81.0218 38.8295 78.6354 39.3977 76.0028 39.3977C73.3513 39.3977 70.9555 38.8248 68.8153 37.679C66.6847 36.5237 64.9896 34.8381 63.7301 32.6222C62.4801 30.3968 61.8551 27.6742 61.8551 24.4545C61.8551 21.2159 62.4801 18.4886 63.7301 16.2727C64.9896 14.0473 66.6847 12.3665 68.8153 11.2301C70.9555 10.0843 73.3513 9.51136 76.0028 9.51136C78.6354 9.51136 81.0218 10.0843 83.1619 11.2301C85.3021 12.3665 87.0019 14.0473 88.2614 16.2727C89.5208 18.4886 90.1506 21.2159 90.1506 24.4545ZM82.0256 24.4545C82.0256 22.7121 81.7936 21.2443 81.3295 20.0511C80.875 18.8485 80.1979 17.9394 79.2983 17.3239C78.4081 16.6989 77.3097 16.3864 76.0028 16.3864C74.696 16.3864 73.5928 16.6989 72.6932 17.3239C71.803 17.9394 71.1259 18.8485 70.6619 20.0511C70.2074 21.2443 69.9801 22.7121 69.9801 24.4545C69.9801 26.197 70.2074 27.6695 70.6619 28.8722C71.1259 30.0653 71.803 30.9744 72.6932 31.5994C73.5928 32.215 74.696 32.5227 76.0028 32.5227C77.3097 32.5227 78.4081 32.215 79.2983 31.5994C80.1979 30.9744 80.875 30.0653 81.3295 28.8722C81.7936 27.6695 82.0256 26.197 82.0256 24.4545ZM104.998 39H93.8047V9.90909H104.884C107.877 9.90909 110.462 10.4915 112.64 11.6562C114.827 12.8116 116.513 14.4782 117.697 16.6562C118.89 18.8248 119.487 21.4242 119.487 24.4545C119.487 27.4848 118.895 30.089 117.711 32.267C116.527 34.4356 114.851 36.1023 112.683 37.267C110.514 38.4223 107.952 39 104.998 39ZM101.702 32.2955H104.714C106.153 32.2955 107.379 32.0634 108.393 31.5994C109.415 31.1354 110.192 30.3352 110.722 29.1989C111.262 28.0625 111.532 26.4811 111.532 24.4545C111.532 22.428 111.257 20.8466 110.708 19.7102C110.168 18.5739 109.373 17.7737 108.322 17.3097C107.28 16.8456 106.002 16.6136 104.487 16.6136H101.702V32.2955ZM151.322 24.4545C151.322 27.6932 150.693 30.4252 149.433 32.6506C148.174 34.8665 146.474 36.5473 144.334 37.6932C142.194 38.8295 139.807 39.3977 137.175 39.3977C134.523 39.3977 132.127 38.8248 129.987 37.679C127.857 36.5237 126.161 34.8381 124.902 32.6222C123.652 30.3968 123.027 27.6742 123.027 24.4545C123.027 21.2159 123.652 18.4886 124.902 16.2727C126.161 14.0473 127.857 12.3665 129.987 11.2301C132.127 10.0843 134.523 9.51136 137.175 9.51136C139.807 9.51136 142.194 10.0843 144.334 11.2301C146.474 12.3665 148.174 14.0473 149.433 16.2727C150.693 18.4886 151.322 21.2159 151.322 24.4545ZM143.197 24.4545C143.197 22.7121 142.965 21.2443 142.501 20.0511C142.047 18.8485 141.37 17.9394 140.47 17.3239C139.58 16.6989 138.482 16.3864 137.175 16.3864C135.868 16.3864 134.765 16.6989 133.865 17.3239C132.975 17.9394 132.298 18.8485 131.834 20.0511C131.379 21.2443 131.152 22.7121 131.152 24.4545C131.152 26.197 131.379 27.6695 131.834 28.8722C132.298 30.0653 132.975 30.9744 133.865 31.5994C134.765 32.215 135.868 32.5227 137.175 32.5227C138.482 32.5227 139.58 32.215 140.47 31.5994C141.37 30.9744 142.047 30.0653 142.501 28.8722C142.965 27.6695 143.197 26.197 143.197 24.4545Z" fill="#4EA8DE"/>
<g clip-path="url(#clip0_12_482)">
<path d="M11.0214 12.933C14.1471 16.9011 15.8156 21.7944 15.7551 26.8155V28.0141L16.7864 28.6416C18.1188 29.4482 14.3932 32.2504 14.8671 33.718C14.451 33.4116 18.7351 31.5803 18.2831 31.3278L15.5331 29.7838L15.039 32.9001C14.9962 33.1755 14.9388 33.4485 14.8671 33.718H7.16139C7.0468 33.3655 6.9537 33.0129 6.86777 32.6463L6.24472 29.8261L3.70956 31.2362C3.28603 31.473 7.55354 33.4335 7.16139 33.718C7.64455 32.2674 3.94111 29.3242 5.24211 28.4935L6.22323 27.866V26.7521C6.24093 21.7513 7.92955 16.8952 11.0286 12.933H11.0214ZM11.0286 10C10.8679 10.0004 10.7127 10.058 10.5917 10.1622L10.5273 10.2186C6.39766 14.7656 4.10454 20.6454 4.08196 26.745C2.32955 27.8643 1.03238 29.5543 0.417141 31.5197C-0.198101 33.485 -0.092294 35.6007 0.716072 37.4971C1.56764 35.6455 2.99119 34.1058 4.78378 33.0975C4.96356 33.8642 5.20298 34.6161 5.49993 35.3467C5.53759 35.4871 5.62106 35.6114 5.73751 35.7006C5.85396 35.7898 5.99694 35.8388 6.14446 35.8402H16.0846C16.2851 35.8402 16.4856 35.6498 16.5859 35.3537C16.8757 34.6592 17.0777 33.9322 17.1874 33.1892C18.9835 34.1932 20.4082 35.7342 21.2551 37.5887C22.1123 35.7017 22.245 33.5727 21.6286 31.5967C21.0123 29.6206 19.6887 27.9319 17.9036 26.8437C17.9744 20.7082 15.6934 14.7718 11.5156 10.2186C11.4533 10.1501 11.3772 10.0952 11.2921 10.0576C11.2069 10.0199 11.1147 10.0003 11.0214 10H11.0286Z" fill="#4EA8DE"/>
<path d="M14.8957 37.5958C14.7165 37.5901 14.538 37.6198 14.3706 37.683C14.2032 37.7462 14.0503 37.8416 13.9209 37.9638C13.7915 38.086 13.6881 38.2323 13.6169 38.3943C13.5458 38.5563 13.5082 38.7307 13.5063 38.9072V43.067C13.5063 43.4297 13.6527 43.7776 13.9133 44.0342C14.1738 44.2907 14.5272 44.4348 14.8957 44.4348C15.2641 44.4348 15.6175 44.2907 15.8781 44.0342C16.1386 43.7776 16.285 43.4297 16.285 43.067V38.9636C16.2907 38.7877 16.2608 38.6126 16.1971 38.4482C16.1333 38.2839 16.037 38.1337 15.9137 38.0064C15.7904 37.879 15.6425 37.7772 15.4788 37.7067C15.3151 37.6362 15.1388 37.5985 14.9601 37.5958H14.8957Z" fill="#5E60CE"/>
<path d="M10.9995 21.0007C10.7416 20.9949 10.4847 21.0253 10.2438 21.0899C10.0029 21.1546 9.78282 21.2523 9.59657 21.3774C9.41032 21.5024 9.26161 21.6522 9.15917 21.818C9.05673 21.9837 9.00261 22.1622 9 22.3428V26.6001C9 26.9714 9.21066 27.3275 9.58564 27.59C9.96062 27.8525 10.4692 28 10.9995 28C11.5298 28 12.0384 27.8525 12.4134 27.59C12.7883 27.3275 12.999 26.9714 12.999 26.6001V22.4006C13.0072 22.2206 12.9642 22.0413 12.8725 21.8731C12.7807 21.7049 12.6421 21.5512 12.4646 21.4209C12.2871 21.2906 12.0744 21.1863 11.8388 21.1142C11.6032 21.0421 11.3494 21.0035 11.0923 21.0007H10.9995Z" fill="#5E60CE"/>
<path d="M7.1613 37.5958C6.97906 37.5863 6.79675 37.613 6.62521 37.6743C6.45367 37.7356 6.29641 37.8302 6.16278 37.9526C6.02915 38.0749 5.92188 38.2225 5.84736 38.3865C5.77284 38.5505 5.73259 38.7275 5.729 38.9072V43.067C5.729 43.4297 5.87538 43.7777 6.13593 44.0342C6.39648 44.2907 6.74986 44.4348 7.11833 44.4348C7.4868 44.4348 7.84018 44.2907 8.10073 44.0342C8.36128 43.7777 8.50765 43.4297 8.50765 43.067V38.9636C8.51337 38.7877 8.48349 38.6126 8.41974 38.4482C8.35599 38.2839 8.25965 38.1337 8.13634 38.0064C8.01302 37.879 7.8652 37.7772 7.70149 37.7067C7.53777 37.6362 7.36144 37.5985 7.18278 37.5958H7.1613Z" fill="#5E60CE"/>
<path d="M10.9211 37.5958C10.7424 37.592 10.5647 37.623 10.3981 37.6869C10.2316 37.7507 10.0795 37.8463 9.95044 37.9681C9.82142 38.0899 9.71804 38.2355 9.6462 38.3966C9.57435 38.5577 9.53546 38.7312 9.53174 38.9072V44.6392C9.53174 45.002 9.67811 45.3499 9.93866 45.6064C10.1992 45.8629 10.5526 46.007 10.9211 46.007C11.2895 46.007 11.6429 45.8629 11.9035 45.6064C12.164 45.3499 12.3104 45.002 12.3104 44.6392V38.9988C12.3161 38.823 12.2862 38.6478 12.2225 38.4835C12.1587 38.3191 12.0624 38.1689 11.9391 38.0416C11.8158 37.9143 11.6679 37.8124 11.5042 37.7419C11.3405 37.6714 11.1642 37.6337 10.9855 37.631L10.9211 37.5958Z" fill="#5E60CE"/>
</g>
<defs>
<clipPath id="clip0_12_482">
<rect width="22" height="36" fill="white" transform="translate(0 10)"/>
</clipPath>
</defs>
</svg>
